<?xml version="1.0" standalone="no"?>
<!DOCTYPE svg PUBLIC "-//W3C//DTD SVG 20010904//EN"
 "http://www.w3.org/TR/2001/REC-SVG-20010904/DTD/svg10.dtd">
<svg version="1.0" xmlns="http://www.w3.org/2000/svg"
 width="256.000000pt" height="256.000000pt" viewBox="0 0 256.000000 256.000000"
 preserveAspectRatio="xMidYMid meet">
<metadata>
Created by potrace 1.14, written by Peter Selinger 2001-2017
</metadata>
<g transform="translate(0.000000,256.000000) scale(0.100000,-0.100000)"
fill="#000000" stroke="none">
<path d="M970 2410 c-25 -5 -60 -11 -77 -14 -112 -21 -278 -93 -399 -172 -74
-48 -248 -222 -296 -294 -74 -114 -144 -267 -163 -355 -8 -39 -14 -68 -21 -95
-11 -45 -13 -284 -3 -353 34 -237 141 -449 314 -622 104 -105 118 -116 205
-171 93 -59 136 -79 236 -113 117 -39 179 -51 294 -58 108 -6 130 3 130 56 0
38 -17 50 -76 56 -27 2 -72 7 -100 9 -400 38 -761 354 -864 756 -26 102 -32
146 -32 255 0 90 2 110 23 215 66 329 344 637 671 744 176 58 424 67 568 21
10 -3 27 -7 37 -9 10 -2 47 -15 83 -29 232 -88 429 -267 543 -492 37 -74 73
-170 81 -220 3 -16 10 -54 16 -84 21 -110 16 -110 -67 -4 -88 112 -89 113
-125 113 -34 0 -62 -37 -51 -68 11 -29 273 -361 298 -378 11 -7 30 -11 42 -8
12 3 74 73 144 162 68 87 126 159 129 162 3 3 14 16 23 30 34 49 12 100 -43
100 -25 0 -42 -17 -124 -121 l-96 -122 0 52 c0 28 -1 54 -2 59 -1 4 -7 36 -14
72 -19 96 -20 99 -44 170 -83 243 -272 473 -495 601 -124 72 -262 124 -380
144 -63 10 -315 14 -365 5z"/>
<path d="M1113 1959 c-12 -4 -26 -21 -29 -36 -4 -15 -8 -169 -8 -341 -1 -299
0 -314 19 -335 11 -12 47 -54 80 -92 151 -176 170 -195 197 -195 35 0 61 23
61 54 0 18 -20 48 -64 99 -35 39 -66 74 -69 77 -3 3 -28 32 -57 65 l-51 60 0
235 c-1 428 2 388 -29 404 -18 9 -36 11 -50 5z"/>
</g>
</svg>
